<svg xmlns="http://www.w3.org/2000/svg" viewBox="0 0 600 400"><path fill="#e9dfca" d="M0 0h600v400H0z"/><path fill="#c2b391" d="M35 0h530v330H35z"/><path fill="#1b4435" d="M80 85h440v238H80z"/><path fill="#74908a" d="M110 130h95v165h-95zM395 130h95v165h-95z"/><path fill="#aa9d79" d="M246 135h106v187H246z"/><path fill="#183a2c" d="M265 156h68v160h-68z"/><path fill="#f1e8d4" d="M65 70h470v53H65z"/><text x="300" y="105" font-family="Georgia" font-size="29" fill="#244b39" text-anchor="middle">Kawiarnia</text><g stroke="#725e43" stroke-width="9" fill="none"><path d="M60 341h120M85 341v55M157 341v55M410 341h140M434 341v55M528 341v55"/></g><g fill="#578158"><circle cx="57" cy="270" r="40"/><circle cx="553" cy="264" r="48"/></g><g fill="#967653"><path d="M34 289h47l-7 48H42zM527 289h51l-6 48h-36z"/></g><g fill="#e8c270"><circle cx="226" cy="148" r="8"/><circle cx="371" cy="148" r="8"/></g></svg>
